<svg xmlns="http://www.w3.org/2000/svg" xmlns:xlink="http://www.w3.org/1999/xlink" id="svg" version="1.1" width="60"
  height="80" viewBox="0 0 800 1200">
  <g id="layer1">
    <path id="path-1" fill="#b4b2b2" stroke="black" stroke-width="10"
      d="m373.3 58.058c-183.43 0.258-332.05 149.04-332.05 332.53 0 121.52 65.173 227.8 162.48 285.82 94.942 70.715 159.22 180.26 169.37 305.13l0.19675 0.33729 0.0843-0.14058 0.0562 0.14058 0.19675-0.33729c10.16-124.88 74.43-234.42 169.38-305.13 97.312-58.012 162.48-164.3 162.48-285.82 0-183.49-148.62-332.27-332.05-332.53-0.0469-0.000063-0.0937 0.000045-0.14053 0z" />
    <path id="path-2" stroke="black" stroke-width="20" fill="#dcd9d9"
      d="m467.14 220.93a145.71 145.71 0 1 1 -291.43 0 145.71 145.71 0 1 1 291.43 0z"
      transform="matrix(1.5292 0 0 1.5292 -118.15 51.446)" />
    <path id="pawn" fill="#ec0303" d="m467.14 220.93a145.71 145.71 0 1 1 -291.43 0 145.71 145.71 0 1 1 291.43 0z"
      transform="matrix(1.4997 0 0 1.4752 -108.69 55.502)" />
  </g>
</svg>
